# xmcd
#
# Track frame offsets: 
#        150
#        18175
#        28523
#        42332
#        58922
#        71747
#        85518
#        98275
#        110755
#        127335
#        138999
#        154116
#        168474
#        180656
#        196126
#        209920
#        225006
#        240972
#        256416
#        268779
#        288625
#        303555
#        313041
#
# Disc length: 4364 seconds
#
# Revision: 0
# Processed by: cddbd v1.5.2PL0 Copyright (c) Steve Scherf et al.
# Submitted via: ExactAudioCopy v0.99pb5
#
DISCID=44110a17
DTITLE=Various Artist - 100 Years Of The Blues - From Mystical Gods To Modern
DTITLE=Day - Disc 3
DYEAR=2011
DGENRE=Blues
TTITLE0=Muddy Waters - My Home Is In The Delta
TTITLE1=Koerner, Ray and Glover - Linin' Track
TTITLE2=Mississippi Fred McDowell - 61 Highway
TTITLE3=Son House - Empire State Express
TTITLE4=Alexis Korners Blues Incorporated - Rain Is Such A Lonesome So
TTITLE4=und
TTITLE5=Slim Harpo - I'm A King Bee
TTITLE6=Tommy Tucker - High Heel Sneekers
TTITLE7=The Graham Bond Organisation - Hoochie Coochie Man
TTITLE8=The Kinks - Milk Cow Blues
TTITLE9=The Sheffields - I Got My Mojo Working
TTITLE10=John Mayall and The Bluesbreakers - Double Trouble
TTITLE11=Clarence Gatemouth Brown - Cross My Heart
TTITLE12=B B King - How Blue Can You Get
TTITLE13=Buddy Guy - Leave My Girl Alone
TTITLE14=Albert Collins - Frosty
TTITLE15=Lightnin' Hopkins - Mojo Hand
TTITLE16=The Rising Sons - By And By (Poor Me)
TTITLE17=Canned Heat - World In A Jug
TTITLE18=Grateful Dead - Sitting On Top Of The World
TTITLE19=Paul Butterfield - Blues With A Feeling
TTITLE20=The Blues Project - Back Door Man
TTITLE21=Ten Years After - Love Until I Die
TTITLE22=Cream - Born Under A Bad Sign
EXTD=
EXTT0=
EXTT1=
EXTT2=
EXTT3=
EXTT4=
EXTT5=
EXTT6=
EXTT7=
EXTT8=
EXTT9=
EXTT10=
EXTT11=
EXTT12=
EXTT13=
EXTT14=
EXTT15=
EXTT16=
EXTT17=
EXTT18=
EXTT19=
EXTT20=
EXTT21=
EXTT22=
PLAYORDER=
